# xmcd CD database file
#
# Track frame offsets:
#	150
#	1496
#	45889
#	89769
#	101579
#	119188
#	196046
#
# Disc length: 3504 seconds
#
# Revision: 0
# Processed by: cddbd v1.5.1PL0 Copyright (c) Steve Scherf et al.
# Submitted via: CDex 1.51
#
DISCID=550dae07
DTITLE=Miles Davis - The Lost Quintet at Last - November 9, 1969
DYEAR=1969
DGENRE=Jazz
TTITLE0=Introduction
TTITLE1=Directions
TTITLE2=Bitches Brew
TTITLE3=I Fall in Love Too Easily
TTITLE4=Sanctuary
TTITLE5=It's About That Time
TTITLE6=Masqualero
EXTD=YEAR: 1969
EXTT0=
EXTT1=
EXTT2=
EXTT3=
EXTT4=
EXTT5=
EXTT6=
PLAYORDER=
